HIERARCHY
ROOT Hips
{
	OFFSET 0.000000 0.000000 0.000000
	CHANNELS 6 Xposition Yposition Zposition Zrotation Yrotation Xrotation 
	JOINT LowerBack
	{
		OFFSET 0.000000 0.000000 0.000000
		CHANNELS 3 Zrotation Yrotation Xrotation
		JOINT Spine
		{
			OFFSET 0.028270 2.035590 -0.193380
			CHANNELS 3 Zrotation Yrotation Xrotation
			JOINT Spine1
			{
				OFFSET 0.056720 2.048850 -0.042750
				CHANNELS 3 Zrotation Yrotation Xrotation
				JOINT Neck
				{
					OFFSET 0.000000 0.000000 0.000000
					CHANNELS 3 Zrotation Yrotation Xrotation
					JOINT Neck1
					{
						OFFSET -0.054170 1.746240 0.172020
						CHANNELS 3 Zrotation Yrotation Xrotation
						JOINT Head
						{
							OFFSET 0.104070 1.761360 -0.123970
							CHANNELS 3 Zrotation Yrotation Xrotation
							End Site
							{
								OFFSET 0.000000 0.000000 0.000000
							}
						}
					}
				}
				JOINT LeftShoulder
				{
					OFFSET 0.000000 0.000000 0.000000
					CHANNELS 3 Zrotation Yrotation Xrotation
					JOINT LeftArm
					{
						OFFSET 3.362410 1.200890 -0.311210
						CHANNELS 3 Zrotation Yrotation Xrotation
						JOINT LeftForeArm
						{
							OFFSET 4.983000 -0.000000 -0.000000
							CHANNELS 3 Zrotation Yrotation Xrotation
							JOINT LeftHand
							{
								OFFSET 3.483560 -0.000000 -0.000000
								CHANNELS 3 Zrotation Yrotation Xrotation
								JOINT LeftFingerBase
								{
									OFFSET 0.000000 0.000000 0.000000
									CHANNELS 3 Zrotation Yrotation Xrotation
									JOINT LeftHandIndex1
									{
										OFFSET 0.715260 -0.000000 -0.000000
										CHANNELS 3 Zrotation Yrotation Xrotation
										End Site
										{
											OFFSET 0.000000 0.000000 0.000000
										}
									}
								}
								JOINT LThumb
								{
									OFFSET 0.000000 0.000000 0.000000
									CHANNELS 3 Zrotation Yrotation Xrotation
									End Site
									{
										OFFSET 0.000000 0.000000 0.000000
									}
								}
							}
						}
					}
				}
				JOINT RightShoulder
				{
					OFFSET 0.000000 0.000000 0.000000
					CHANNELS 3 Zrotation Yrotation Xrotation
					JOINT RightArm
					{
						OFFSET -3.136600 1.374050 -0.404650
						CHANNELS 3 Zrotation Yrotation Xrotation
						JOINT RightForeArm
						{
							OFFSET -5.241900 -0.000000 -0.000000
							CHANNELS 3 Zrotation Yrotation Xrotation
							JOINT RightHand
							{
								OFFSET -3.444170 -0.000000 -0.000000
								CHANNELS 3 Zrotation Yrotation Xrotation
								JOINT RightFingerBase
								{
									OFFSET 0.000000 0.000000 0.000000
									CHANNELS 3 Zrotation Yrotation Xrotation
									JOINT RightHandIndex1
									{
										OFFSET -0.622530 -0.000000 -0.000000
										CHANNELS 3 Zrotation Yrotation Xrotation
										End Site
										{
											OFFSET 0.000000 0.000000 0.000000
										}
									}
								}
								JOINT RThumb
								{
									OFFSET 0.000000 0.000000 0.000000
									CHANNELS 3 Zrotation Yrotation Xrotation
									End Site
									{
										OFFSET 0.000000 0.000000 0.000000
									}
								}
							}
						}
					}
				}
			}
		}
	}
}
}
MOTION
Frames: 14
Frame Time: 0.008333
2.272577 16.421302 3.956499 -144.903358 -87.495160 153.904370 -1.415228 0.571287 -3.446874 -1.431679 0.477238 -3.766439 -7.613598 0.462196 -0.333127 11.795607 -5.314690 -6.547578 -3.849530 -0.306170 0.273422 0.000000 0.000000 0.000000 -4.062157 16.013257 1.889491 -67.183292 15.391720 7.066643 -1.862738 -56.900863 -0.007588 1.678455 9.189220 0.140302 -0.057646 -0.028520 -0.000000 0.000000 0.000000 0.000000 0.000000 0.000000 0.000000 18.018511 2.598607 -1.104390 64.903398 33.590043 17.201138 0.509059 76.384026 -0.025246 -3.847130 7.800436 -0.280862 0.038972 -0.499464 0.000000 0.000000 0.000000 0.000000 0.000000 0.000000 0.000000 
2.138751 16.430226 3.969811 169.270917 -88.405528 -160.230199 -3.186262 0.240567 -3.493347 -1.732147 0.298864 -3.779842 -7.594810 0.267898 -0.406108 11.978936 -5.413804 -6.447067 -3.847466 -0.306675 0.296152 0.000000 0.000000 0.000000 -3.572627 15.565000 1.925471 -67.068358 15.172029 7.268480 -1.788427 -58.354028 -0.007850 1.969408 9.052939 0.161552 -0.060403 -0.022430 -0.000000 0.000000 0.000000 0.000000 0.000000 0.000000 0.000000 18.124991 2.377526 -1.184318 65.355989 33.427739 17.030687 0.476640 77.696045 -0.027797 -4.080842 7.850591 -0.300239 0.040756 -0.511732 0.000000 0.000000 0.000000 0.000000 0.000000 0.000000 0.000000 
2.009445 16.440558 3.984126 122.471230 -89.977574 -113.369479 -3.027955 -0.205830 -3.450837 -1.713616 -0.151720 -3.757785 -7.647326 -0.157122 -0.458042 12.105112 -5.506031 -6.353189 -3.852954 -0.307986 0.317754 0.000000 0.000000 0.000000 -3.122670 14.969545 1.974775 -66.995411 14.887697 7.476962 -1.705948 -59.828943 -0.008036 2.234035 8.923681 0.179908 -0.061578 -0.013311 -0.000000 0.000000 0.000000 0.000000 0.000000 0.000000 0.000000 18.135045 2.081537 -1.298921 65.752591 33.242852 16.839007 0.436349 79.031607 -0.030443 -4.303137 7.908816 -0.319178 0.041345 -0.521625 0.000000 0.000000 0.000000 0.000000 0.000000 0.000000 0.000000 
1.884924 16.451866 3.999985 107.979907 -89.988050 -98.793088 -3.165351 -0.250339 -3.482657 -1.757112 -0.186515 -3.781273 -7.700434 -0.183830 -0.548311 12.209301 -5.566782 -6.254678 -3.852500 -0.308721 0.343409 0.000000 0.000000 0.000000 -2.717245 14.577789 1.961047 -66.929877 14.600354 7.669671 -1.604652 -61.394929 -0.008114 2.473824 8.799468 0.195751 -0.061683 -0.005441 -0.000000 0.000000 0.000000 0.000000 0.000000 0.000000 0.000000 18.094502 2.017325 -1.350556 66.173914 33.133969 16.704440 0.407970 80.303528 -0.032740 -4.511109 7.975690 -0.337947 0.044379 -0.534084 0.000000 0.000000 0.000000 0.000000 0.000000 0.000000 0.000000 
1.765460 16.463775 4.016311 104.329070 -89.741108 -95.009946 -3.511295 -0.307212 -3.531992 -1.830452 -0.215351 -3.808718 -7.734417 -0.208885 -0.648658 12.286343 -5.600518 -6.150018 -3.849966 -0.309314 0.370209 0.000000 0.000000 0.000000 -2.312566 14.162506 1.953302 -66.871144 14.277256 7.875513 -1.500747 -63.022249 -0.008334 2.692058 8.682143 0.209598 -0.062057 0.003118 -0.000000 0.000000 0.000000 0.000000 0.000000 0.000000 0.000000 18.012239 1.977088 -1.397474 66.608801 33.058486 16.589325 0.381366 81.540531 -0.035105 -4.711306 8.057811 -0.357010 0.047174 -0.547097 0.000000 0.000000 0.000000 0.000000 0.000000 0.000000 0.000000 
1.650898 16.476150 4.033148 104.957126 -89.440558 -95.463314 -3.881144 -0.373649 -3.594891 -1.902610 -0.250774 -3.838139 -7.757484 -0.241598 -0.755156 12.334143 -5.607669 -6.040722 -3.847065 -0.309907 0.398003 0.000000 0.000000 0.000000 -1.915337 13.730348 1.949451 -66.817278 13.913728 8.090513 -1.393869 -64.706734 -0.008678 2.893734 8.571350 0.221846 -0.062597 0.012510 -0.000000 0.000000 0.000000 0.000000 0.000000 0.000000 0.000000 17.890026 1.959438 -1.441724 67.045771 33.024834 16.500055 0.355894 82.740595 -0.037539 -4.905418 8.158052 -0.376775 0.049739 -0.560490 -0.000000 0.000000 0.000000 0.000000 0.000000 0.000000 0.000000 
1.541315 16.488980 4.050862 107.824831 -89.145172 -98.126615 -4.210157 -0.439708 -3.665123 -1.962218 -0.288203 -3.868844 -7.772225 -0.276840 -0.867965 12.349851 -5.585355 -5.925519 -3.844885 -0.310592 0.427375 0.000000 0.000000 0.000000 -1.537664 13.289351 1.947202 -66.763590 13.513292 8.304644 -1.283895 -66.447525 -0.009143 3.083068 8.466170 0.232999 -0.063287 0.022714 -0.000000 0.000000 0.000000 0.000000 0.000000 0.000000 0.000000 17.728667 1.971085 -1.483207 67.476191 33.037523 16.440112 0.331071 83.900749 -0.040032 -5.093238 8.277368 -0.397241 0.052079 -0.574210 -0.000000 0.000000 0.000000 0.000000 0.000000 0.000000 0.000000 
1.436291 16.502367 4.068775 111.877551 -88.850738 -101.954928 -4.501812 -0.502238 -3.742100 -2.010880 -0.324441 -3.900123 -7.780561 -0.311206 -0.982876 12.341916 -5.541237 -5.806240 -3.844716 -0.311443 0.457767 0.000000 0.000000 0.000000 -1.166547 12.852939 1.944412 -66.707058 13.069180 8.517814 -1.171832 -68.230993 -0.009741 3.266497 8.363975 0.243356 -0.064191 0.033705 -0.000000 0.000000 0.000000 0.000000 0.000000 0.000000 0.000000 17.546787 2.006005 -1.521287 67.898824 33.107132 16.421005 0.307539 85.015444 -0.042579 -5.277492 8.415105 -0.418806 0.054368 -0.588211 -0.000000 0.000000 0.000000 0.000000 0.000000 0.000000 0.000000 
1.335390 16.516557 4.086877 116.570097 -88.562012 -106.414201 -4.745484 -0.559755 -3.821113 -2.046900 -0.358954 -3.930723 -7.783475 -0.344030 -1.097212 12.313500 -5.479533 -5.683228 -3.847406 -0.312509 0.489152 0.000000 0.000000 0.000000 -0.801527 12.429344 1.939523 -66.644259 12.579443 8.726773 -1.058632 -70.046837 -0.010482 3.448552 8.262242 0.253218 -0.065377 0.045456 -0.000000 0.000000 0.000000 0.000000 0.000000 0.000000 0.000000 17.353351 2.059861 -1.556389 68.309153 33.235370 16.447164 0.285071 86.083297 -0.045156 -5.458121 8.568390 -0.441371 0.056668 -0.602368 -0.000000 0.000000 0.000000 0.000000 0.000000 0.000000 0.000000 
1.238257 16.531901 4.105360 121.567939 -88.283999 -111.184874 -4.930307 -0.611888 -3.892462 -2.068521 -0.392261 -3.958944 -7.781677 -0.375717 -1.210657 12.266344 -5.402749 -5.554727 -3.853659 -0.313853 0.522076 0.000000 0.000000 0.000000 -0.446465 12.017195 1.931649 -66.572188 12.050323 8.922963 -0.944994 -71.889773 -0.011370 3.631916 8.159028 0.262884 -0.066864 0.057924 -0.000000 0.000000 0.000000 0.000000 0.000000 0.000000 0.000000 17.154082 2.129055 -1.588650 68.701989 33.418093 16.518184 0.263099 87.105672 -0.047740 -5.633913 8.732674 -0.464638 0.058991 -0.616528 -0.000000 0.000000 0.000000 0.000000 0.000000 0.000000 0.000000 
1.144596 16.548687 4.124192 126.546270 -88.018096 -115.957861 -5.056163 -0.659983 -3.946444 -2.076213 -0.425705 -3.981227 -7.775430 -0.407140 -1.315717 12.205671 -5.322336 -5.426129 -3.863485 -0.315391 0.554971 0.000000 0.000000 0.000000 -0.095928 11.641080 1.919289 -66.489213 11.451383 9.122649 -0.832938 -73.734100 -0.012439 3.820811 8.052071 0.272358 -0.068830 0.071148 -0.000000 0.000000 0.000000 0.000000 0.000000 0.000000 0.000000 16.958069 2.201235 -1.620279 69.074757 33.660668 16.639413 0.241332 88.082452 -0.050306 -5.805381 8.904723 -0.488505 0.061428 -0.630528 -0.000000 0.000000 0.000000 0.000000 0.000000 0.000000 0.000000 
1.053386 16.567145 4.143123 131.180334 -87.765220 -120.402597 -5.130207 -0.706716 -3.995779 -2.072663 -0.461856 -4.001388 -7.767100 -0.440925 -1.417270 12.136844 -5.238697 -5.290451 -3.877684 -0.317305 0.590024 0.000000 0.000000 0.000000 0.254908 11.269166 1.901290 -66.393694 10.830974 9.303957 -0.721699 -75.596848 -0.013658 4.013728 7.938260 0.281438 -0.071082 0.085016 -0.000000 0.000000 0.000000 0.000000 0.000000 0.000000 0.000000 16.772303 2.273181 -1.649321 69.428276 33.937403 16.802485 0.219636 89.025181 -0.052807 -5.969703 9.075444 -0.512173 0.064011 -0.644258 -0.000000 0.000000 0.000000 0.000000 0.000000 0.000000 0.000000 
0.964358 16.587514 4.162423 135.402990 -87.538849 -124.463299 -5.148030 -0.753952 -4.028914 -2.057288 -0.502772 -4.016117 -7.756529 -0.478719 -1.510798 12.061739 -5.160421 -5.151096 -3.895772 -0.319500 0.626249 0.000000 0.000000 0.000000 0.604266 10.913775 1.876984 -66.285566 10.168052 9.479016 -0.612717 -77.461938 -0.015048 4.210179 7.815444 0.290022 -0.073706 0.099576 -0.000000 0.000000 0.000000 0.000000 0.000000 0.000000 0.000000 16.597785 2.334429 -1.677360 69.758664 34.246205 17.005020 0.197322 89.938661 -0.055224 -6.127036 9.241575 -0.535643 0.066781 -0.657582 -0.000000 0.000000 0.000000 0.000000 0.000000 0.000000 0.000000 
0.877247 16.609883 4.182080 139.152194 -87.348032 -128.083545 -5.113627 -0.803578 -4.044483 -2.031310 -0.550016 -4.025017 -7.744125 -0.521897 -1.595736 11.982673 -5.092427 -5.008098 -3.917249 -0.321941 0.663684 0.000000 0.000000 0.000000 0.953246 10.572016 1.845739 -66.165197 9.461801 9.650732 -0.506481 -79.326504 -0.016591 4.406406 7.681846 0.297713 -0.076658 0.114854 -0.000000 0.000000 0.000000 0.000000 0.000000 0.000000 0.000000 16.433854 2.378455 -1.704942 70.065118 34.575282 17.239370 -179.825994 89.168605 179.942469 -6.275701 9.398980 -0.558315 0.069728 -0.670435 -0.000000 0.000000 0.000000 0.000000 0.000000 0.000000 0.000000 
